<svg xmlns="http://www.w3.org/2000/svg" viewBox="0 0 1200 630" fill="none">
  <rect width="1200" height="630" fill="#e0ddf5"/>
  <circle cx="600" cy="315" r="200" fill="#6c5ce7" opacity="0.08"/>
  <circle cx="800" cy="200" r="140" fill="#8b7eeb" opacity="0.1"/>
  <circle cx="350" cy="450" r="100" fill="#6c5ce7" opacity="0.06"/>
  <g transform="translate(480,180)">
    <path d="M60 0C27 0 0 27 0 60c0 45 60 100 60 100s60-55 60-100c0-33-27-60-60-60z" fill="#6c5ce7"/>
    <circle cx="60" cy="60" r="22" fill="white"/>
  </g>
  <rect x="380" y="380" width="440" height="60" rx="30" fill="white" stroke="#6c5ce7" stroke-width="2"/>
  <circle cx="420" cy="410" r="14" fill="none" stroke="#6c5ce7" stroke-width="3"/>
  <line x1="430" y1="420" x2="438" y2="428" stroke="#6c5ce7" stroke-width="3" stroke-linecap="round"/>
  <rect x="450" y="400" width="200" height="16" rx="8" fill="#e0ddf5"/>
  <circle cx="200" cy="200" r="8" fill="#8b7eeb" opacity="0.4"/>
  <circle cx="1000" cy="400" r="12" fill="#6c5ce7" opacity="0.3"/>
  <circle cx="150" cy="500" r="10" fill="#8b7eeb" opacity="0.25"/>
</svg>