<svg xmlns="http://www.w3.org/2000/svg" viewBox="0 0 1200 630" fill="none">
  <rect width="1200" height="630" fill="#e8f8f5"/>
  <circle cx="600" cy="315" r="200" fill="#1abc9c" opacity="0.06"/>
  <rect x="370" y="120" width="460" height="400" rx="20" fill="white" stroke="#1abc9c" stroke-width="2"/>
  <rect x="370" y="120" width="460" height="50" rx="20" fill="#1abc9c" opacity="0.1"/>
  <rect x="370" y="150" width="460" height="20" fill="#1abc9c" opacity="0.1"/>
  <rect x="410" y="135" width="140" height="14" rx="7" fill="#1abc9c" opacity="0.4"/>
  <g transform="translate(410,210)">
    <rect width="22" height="22" rx="5" fill="#1abc9c"/>
    <path d="M5 11L9 15L17 7" stroke="white" stroke-width="2.5" fill="none" stroke-linecap="round"/>
    <rect x="40" y="3" width="200" height="14" rx="7" fill="#1abc9c" opacity="0.2"/>
  </g>
  <g transform="translate(410,270)">
    <rect width="22" height="22" rx="5" fill="#1abc9c"/>
    <path d="M5 11L9 15L17 7" stroke="white" stroke-width="2.5" fill="none" stroke-linecap="round"/>
    <rect x="40" y="3" width="260" height="14" rx="7" fill="#1abc9c" opacity="0.2"/>
  </g>
  <g transform="translate(410,330)">
    <rect width="22" height="22" rx="5" fill="#1abc9c"/>
    <path d="M5 11L9 15L17 7" stroke="white" stroke-width="2.5" fill="none" stroke-linecap="round"/>
    <rect x="40" y="3" width="180" height="14" rx="7" fill="#1abc9c" opacity="0.2"/>
  </g>
  <g transform="translate(410,390)">
    <rect width="22" height="22" rx="5" stroke="#1abc9c" stroke-width="2" fill="none"/>
    <rect x="40" y="3" width="230" height="14" rx="7" fill="#1abc9c" opacity="0.12"/>
  </g>
  <g transform="translate(410,450)">
    <rect width="22" height="22" rx="5" stroke="#1abc9c" stroke-width="2" fill="none"/>
    <rect x="40" y="3" width="160" height="14" rx="7" fill="#1abc9c" opacity="0.12"/>
  </g>
  <circle cx="180" cy="300" r="14" fill="#1abc9c" opacity="0.15"/>
  <circle cx="1020" cy="200" r="10" fill="#1abc9c" opacity="0.2"/>
</svg>