<svg xmlns="http://www.w3.org/2000/svg" viewBox="0 0 1200 630" fill="none">
  <rect width="1200" height="630" fill="#eceff1"/>
  <circle cx="600" cy="315" r="200" fill="#455a64" opacity="0.04"/>
  <rect x="490" y="90" width="220" height="420" rx="28" fill="white" stroke="#455a64" stroke-width="2.5"/>
  <rect x="490" y="90" width="220" height="420" rx="28" fill="#455a64" opacity="0.02"/>
  <rect x="505" y="130" width="190" height="340" rx="4" fill="#eceff1"/>
  <circle cx="600" cy="500" r="14" fill="none" stroke="#455a64" stroke-width="2" opacity="0.3"/>
  <rect x="560" y="105" width="80" height="6" rx="3" fill="#455a64" opacity="0.15"/>
  <rect x="530" y="160" width="140" height="30" rx="15" fill="white" stroke="#455a64" stroke-width="1.5"/>
  <circle cx="552" cy="175" r="8" fill="none" stroke="#455a64" stroke-width="1.5" opacity="0.4"/>
  <line x1="558" y1="181" x2="563" y2="186" stroke="#455a64" stroke-width="1.5" opacity="0.4" stroke-linecap="round"/>
  <rect x="530" y="210" width="140" height="50" rx="10" fill="white" stroke="#455a64" stroke-width="1"/>
  <circle cx="558" cy="235" r="12" fill="#1556ac" opacity="0.2"/>
  <rect x="580" y="222" width="70" height="8" rx="4" fill="#455a64" opacity="0.2"/>
  <rect x="580" y="238" width="50" height="6" rx="3" fill="#455a64" opacity="0.1"/>
  <rect x="530" y="275" width="140" height="50" rx="10" fill="white" stroke="#455a64" stroke-width="1"/>
  <circle cx="558" cy="300" r="12" fill="#00b894" opacity="0.2"/>
  <rect x="580" y="287" width="80" height="8" rx="4" fill="#455a64" opacity="0.2"/>
  <rect x="580" y="303" width="60" height="6" rx="3" fill="#455a64" opacity="0.1"/>
  <circle cx="250" cy="250" r="12" fill="#455a64" opacity="0.08"/>
  <circle cx="950" cy="400" r="16" fill="#455a64" opacity="0.06"/>
</svg>