<svg xmlns="http://www.w3.org/2000/svg" viewBox="0 0 1200 630" fill="none">
  <rect width="1200" height="630" fill="#dfe6e9"/>
  <circle cx="600" cy="315" r="200" fill="#6c5ce7" opacity="0.06"/>
  <circle cx="400" cy="180" r="120" fill="#a29bfe" opacity="0.08"/>
  <rect x="340" y="180" width="520" height="300" rx="24" fill="white" stroke="#6c5ce7" stroke-width="2"/>
  <circle cx="460" cy="300" r="50" fill="#6c5ce7" opacity="0.15"/>
  <circle cx="460" cy="290" r="18" fill="#6c5ce7" opacity="0.4"/>
  <path d="M425 330c0-20 16-28 35-28s35 8 35 28" fill="#6c5ce7" opacity="0.3"/>
  <rect x="550" y="270" width="240" height="16" rx="8" fill="#6c5ce7" opacity="0.25"/>
  <rect x="550" y="300" width="180" height="12" rx="6" fill="#6c5ce7" opacity="0.15"/>
  <rect x="550" y="326" width="200" height="12" rx="6" fill="#6c5ce7" opacity="0.1"/>
  <rect x="400" y="400" width="120" height="36" rx="18" fill="#6c5ce7" opacity="0.9"/>
  <rect x="540" y="400" width="120" height="36" rx="18" fill="white" stroke="#6c5ce7" stroke-width="2"/>
  <circle cx="200" cy="400" r="8" fill="#a29bfe" opacity="0.35"/>
  <circle cx="1000" cy="200" r="12" fill="#6c5ce7" opacity="0.2"/>
</svg>