<svg xmlns="http://www.w3.org/2000/svg" viewBox="0 0 1200 630" fill="none">
  <rect width="1200" height="630" fill="#fdf2f0"/>
  <circle cx="600" cy="315" r="220" fill="#e74c3c" opacity="0.05"/>
  <circle cx="250" cy="180" r="100" fill="#e74c3c" opacity="0.04"/>
  <g transform="translate(440,200)">
    <path d="M0 100L0 60C0 40 20 20 40 20L200 20C220 20 240 0 260 0L260 180C240 180 220 160 200 160L40 160C20 160 0 140 0 120Z" fill="#e74c3c" opacity="0.85"/>
    <rect x="260" y="0" width="20" height="180" rx="10" fill="#c0392b"/>
    <circle cx="320" cy="30" r="10" fill="#e74c3c" opacity="0.3"/>
    <circle cx="350" cy="60" r="8" fill="#e74c3c" opacity="0.2"/>
    <circle cx="340" cy="110" r="6" fill="#e74c3c" opacity="0.25"/>
    <circle cx="360" cy="150" r="12" fill="#e74c3c" opacity="0.15"/>
  </g>
  <rect x="380" y="440" width="240" height="14" rx="7" fill="#e74c3c" opacity="0.12"/>
  <rect x="380" y="466" width="160" height="10" rx="5" fill="#e74c3c" opacity="0.08"/>
  <circle cx="900" cy="200" r="16" fill="#e74c3c" opacity="0.15"/>
  <circle cx="1000" cy="450" r="10" fill="#e74c3c" opacity="0.1"/>
</svg>