<svg xmlns="http://www.w3.org/2000/svg" viewBox="0 0 1200 630" fill="none">
  <rect width="1200" height="630" fill="#e3f2fd"/>
  <circle cx="600" cy="315" r="220" fill="#1976d2" opacity="0.04"/>
  <g transform="translate(480,155)">
    <path d="M120 0L145 20L170 10L180 40L210 45L205 75L235 90L220 120L240 145L215 165L220 195L190 200L180 230L150 220L120 240L95 220L60 230L50 200L20 195L25 165L0 145L20 120L5 90L35 75L30 45L60 40L70 10L95 20Z" fill="#1976d2" opacity="0.8"/>
    <circle cx="120" cy="120" r="55" fill="#e3f2fd"/>
    <circle cx="120" cy="120" r="35" fill="none" stroke="#1976d2" stroke-width="3" opacity="0.3"/>
  </g>
  <g transform="translate(740,300)">
    <path d="M50 0L62 8L72 4L76 16L88 18L86 30L98 38L92 50L100 60L90 68L92 80L80 82L76 94L64 90L50 98L40 90L28 94L24 82L12 80L14 68L4 60L12 50L6 38L18 30L16 18L28 16L32 4L42 8Z" fill="#1976d2" opacity="0.35"/>
    <circle cx="52" cy="50" r="22" fill="#e3f2fd"/>
  </g>
  <rect x="380" y="480" width="200" height="12" rx="6" fill="#1976d2" opacity="0.1"/>
  <rect x="410" y="502" width="140" height="10" rx="5" fill="#1976d2" opacity="0.07"/>
  <circle cx="200" cy="200" r="10" fill="#1976d2" opacity="0.12"/>
  <circle cx="1000" cy="180" r="14" fill="#64b5f6" opacity="0.15"/>
</svg>