<svg xmlns="http://www.w3.org/2000/svg" viewBox="0 0 1200 630" fill="none">
  <rect width="1200" height="630" fill="#ffeaa7"/>
  <circle cx="600" cy="315" r="200" fill="#e17055" opacity="0.06"/>
  <rect x="250" y="120" width="700" height="400" rx="24" fill="white" stroke="#e17055" stroke-width="2" opacity="0.95"/>
  <line x1="250" y1="240" x2="950" y2="240" stroke="#ffeaa7" stroke-width="1.5"/>
  <line x1="250" y1="340" x2="950" y2="340" stroke="#ffeaa7" stroke-width="1.5"/>
  <line x1="250" y1="440" x2="950" y2="440" stroke="#ffeaa7" stroke-width="1.5"/>
  <line x1="450" y1="120" x2="450" y2="520" stroke="#ffeaa7" stroke-width="1.5"/>
  <line x1="650" y1="120" x2="650" y2="520" stroke="#ffeaa7" stroke-width="1.5"/>
  <line x1="800" y1="120" x2="800" y2="520" stroke="#ffeaa7" stroke-width="1.5"/>
  <path d="M500 240Q600 220 700 260Q800 300 850 280" stroke="#e17055" stroke-width="3" fill="none" opacity="0.3" stroke-linecap="round"/>
  <g transform="translate(550,180)"><path d="M20 0C9 0 0 9 0 20c0 15 20 35 20 35s20-20 20-35c0-11-9-20-20-20z" fill="#e17055"/><circle cx="20" cy="20" r="7" fill="white"/></g>
  <g transform="translate(380,300)" opacity="0.6"><path d="M12 0C5.4 0 0 5.4 0 12c0 9 12 21 12 21s12-12 12-21c0-6.6-5.4-12-12-12z" fill="#fab1a0"/><circle cx="12" cy="12" r="5" fill="white"/></g>
  <g transform="translate(750,350)" opacity="0.5"><path d="M12 0C5.4 0 0 5.4 0 12c0 9 12 21 12 21s12-12 12-21c0-6.6-5.4-12-12-12z" fill="#fab1a0"/><circle cx="12" cy="12" r="5" fill="white"/></g>
  <circle cx="150" cy="200" r="10" fill="#fab1a0" opacity="0.3"/>
  <circle cx="1060" cy="450" r="14" fill="#e17055" opacity="0.2"/>
</svg>