<svg xmlns="http://www.w3.org/2000/svg" viewBox="0 0 1200 630" fill="none">
  <rect width="1200" height="630" fill="#eef0f8"/>
  <circle cx="600" cy="315" r="200" fill="#3f51b5" opacity="0.05"/>
  <g transform="translate(300,160)">
    <rect width="360" height="140" rx="24" fill="white" stroke="#3f51b5" stroke-width="2"/>
    <polygon points="60,140 80,170 100,140" fill="white" stroke="#3f51b5" stroke-width="2"/>
    <rect x="40" y="40" width="200" height="14" rx="7" fill="#3f51b5" opacity="0.25"/>
    <rect x="40" y="66" width="280" height="14" rx="7" fill="#3f51b5" opacity="0.15"/>
    <rect x="40" y="92" width="150" height="14" rx="7" fill="#3f51b5" opacity="0.1"/>
  </g>
  <g transform="translate(540,340)">
    <rect width="360" height="120" rx="24" fill="#3f51b5" opacity="0.9"/>
    <polygon points="280,120 260,150 240,120" fill="#3f51b5" opacity="0.9"/>
    <rect x="40" y="30" width="240" height="14" rx="7" fill="white" opacity="0.5"/>
    <rect x="40" y="56" width="180" height="14" rx="7" fill="white" opacity="0.35"/>
  </g>
  <circle cx="180" cy="450" r="10" fill="#3f51b5" opacity="0.15"/>
  <circle cx="1020" cy="180" r="12" fill="#3f51b5" opacity="0.12"/>
  <circle cx="900" cy="500" r="8" fill="#7986cb" opacity="0.2"/>
</svg>