<svg xmlns="http://www.w3.org/2000/svg" viewBox="0 0 1200 630" fill="none">
  <rect width="1200" height="630" fill="#e8f5e9"/>
  <circle cx="600" cy="315" r="220" fill="#2e7d32" opacity="0.04"/>
  <g transform="translate(480,130)">
    <path d="M120 0L240 50L240 180C240 280 120 360 120 360C120 360 0 280 0 180L0 50Z" fill="#2e7d32" opacity="0.85"/>
    <path d="M120 30L210 68L210 176C210 256 120 322 120 322C120 322 30 256 30 176L30 68Z" fill="white" opacity="0.15"/>
    <path d="M80 190L110 220L170 150" stroke="white" stroke-width="12" fill="none" stroke-linecap="round" stroke-linejoin="round"/>
  </g>
  <rect x="400" y="520" width="200" height="12" rx="6" fill="#2e7d32" opacity="0.12"/>
  <rect x="430" y="542" width="140" height="10" rx="5" fill="#2e7d32" opacity="0.08"/>
  <circle cx="200" cy="250" r="12" fill="#2e7d32" opacity="0.12"/>
  <circle cx="1000" cy="400" r="14" fill="#81c784" opacity="0.2"/>
  <circle cx="950" cy="180" r="8" fill="#2e7d32" opacity="0.1"/>
</svg>