<svg xmlns="http://www.w3.org/2000/svg" viewBox="0 0 1200 630" fill="none">
  <rect width="1200" height="630" fill="#dfe6e9"/>
  <circle cx="600" cy="315" r="240" fill="#00b894" opacity="0.05"/>
  <rect x="300" y="140" width="600" height="380" rx="20" fill="white" stroke="#00b894" stroke-width="2"/>
  <rect x="300" y="140" width="600" height="44" rx="20" fill="#00b894"/>
  <rect x="300" y="164" width="600" height="20" fill="#00b894"/>
  <circle cx="328" cy="162" r="7" fill="white" opacity="0.5"/>
  <circle cx="350" cy="162" r="7" fill="white" opacity="0.5"/>
  <circle cx="372" cy="162" r="7" fill="white" opacity="0.5"/>
  <rect x="440" y="320" width="60" height="120" rx="6" fill="#55efc4" opacity="0.6"/>
  <rect x="520" y="280" width="60" height="160" rx="6" fill="#55efc4" opacity="0.8"/>
  <rect x="600" y="240" width="60" height="200" rx="6" fill="#00b894"/>
  <rect x="680" y="210" width="60" height="230" rx="6" fill="#00b894" opacity="0.9"/>
  <rect x="360" y="220" width="180" height="16" rx="8" fill="#00b894" opacity="0.2"/>
  <rect x="360" y="246" width="130" height="12" rx="6" fill="#00b894" opacity="0.12"/>
  <circle cx="160" cy="250" r="12" fill="#55efc4" opacity="0.3"/>
  <circle cx="1050" cy="500" r="16" fill="#00b894" opacity="0.2"/>
</svg>