<svg xmlns="http://www.w3.org/2000/svg" viewBox="0 0 1200 630" fill="none">
  <rect width="1200" height="630" fill="#dfe6e9"/>
  <circle cx="600" cy="315" r="220" fill="#0984e3" opacity="0.06"/>
  <circle cx="900" cy="180" r="100" fill="#74b9ff" opacity="0.08"/>
  <rect x="300" y="220" width="600" height="200" rx="24" fill="white" stroke="#0984e3" stroke-width="2" opacity="0.95"/>
  <g transform="translate(380,280)">
    <polygon points="30,0 37,20 58,22 42,36 47,56 30,46 13,56 18,36 2,22 23,20" fill="#f9a825"/>
    <polygon points="120,0 127,20 148,22 132,36 137,56 120,46 103,56 108,36 92,22 113,20" fill="#f9a825"/>
    <polygon points="210,0 217,20 238,22 222,36 227,56 210,46 193,56 198,36 182,22 203,20" fill="#f9a825"/>
    <polygon points="300,0 307,20 328,22 312,36 317,56 300,46 283,56 288,36 272,22 293,20" fill="#f9a825"/>
    <polygon points="390,0 397,20 418,22 402,36 407,56 390,46 373,56 378,36 362,22 383,20" fill="#f9a825"/>
  </g>
  <rect x="380" y="360" width="260" height="14" rx="7" fill="#0984e3" opacity="0.15"/>
  <rect x="380" y="384" width="180" height="14" rx="7" fill="#0984e3" opacity="0.1"/>
  <circle cx="180" cy="450" r="14" fill="#74b9ff" opacity="0.3"/>
  <circle cx="1020" cy="350" r="10" fill="#0984e3" opacity="0.25"/>
</svg>